<svg id="file-document" xmlns="http://www.w3.org/2000/svg" width="30" height="33.333" viewBox="0 0 30 33.333">
  <path id="Path_536" data-name="Path 536" d="M7,18H25V16H7Z" transform="translate(-1 8.37)" fill="#d51945"/>
  <path id="Path_537" data-name="Path 537" d="M25,14H7V12H25Z" transform="translate(-1 5.407)" fill="#d51945"/>
  <path id="Path_538" data-name="Path 538" d="M7,10h5.551V8H7Z" transform="translate(-0.571 2.444)" fill="#d51945"/>
  <path id="Path_539" data-name="Path 539" d="M8,2A5,5,0,0,0,3,7V30.333a5,5,0,0,0,5,5H28a5,5,0,0,0,5-5V13.667A11.667,11.667,0,0,0,21.333,2ZM8,5.333H19.667v8.333h10V30.333A1.667,1.667,0,0,1,28,32H8a1.667,1.667,0,0,1-1.667-1.667V7A1.667,1.667,0,0,1,8,5.333ZM23,5.5a8.348,8.348,0,0,1,5.973,4.833H23Z" transform="translate(-3 -2)" fill="#d51945" fill-rule="evenodd"/>
</svg>
