<svg xmlns="http://www.w3.org/2000/svg" width="82" height="82" viewBox="0 0 82 82">
<path id="home-alt-2" data-name="home-alt" d="M7.806,34.881A4.732,4.732,0,0,1,3,30.226V14.71a1.523,1.523,0,0,1,.008-.156H3a3.317,3.317,0,0,1,1.019-2.383l10-9.686a4.917,4.917,0,0,1,6.8,0l10,9.686a3.317,3.317,0,0,1,1.019,2.383h-.008a1.519,1.519,0,0,1,.008.156V30.226a4.732,4.732,0,0,1-4.806,4.655ZM18.55,4.679l10.081,9.764V30.226a1.577,1.577,0,0,1-1.6,1.552H22.223V24.02a4.808,4.808,0,0,0-9.612,0v7.758H7.806a1.577,1.577,0,0,1-1.6-1.552V14.444L16.285,4.679A1.639,1.639,0,0,1,18.55,4.679Z" transform="translate(23 23)" fill-rule="evenodd"/>
  <g id="Ellipse_31" data-name="Ellipse 31" fill="none" stroke="#231f1f" stroke-width="1" opacity="0.4">
    <circle cx="41" cy="41" r="41" stroke="none"/>
    <circle cx="41" cy="41" r="40.5" fill="none"/>
  </g>
</svg>
