<svg xmlns="http://www.w3.org/2000/svg" width="82" height="82" viewBox="0 0 82 82">
<path id="Chart-2" data-name="Chart" d="M9.872,35a9.586,9.586,0,0,1-7.162-2.874A10.543,10.543,0,0,1,0,24.687V10.313A10.532,10.532,0,0,1,2.715,2.878,9.582,9.582,0,0,1,9.872,0H25.128a9.586,9.586,0,0,1,7.162,2.874A10.543,10.543,0,0,1,35,10.313V24.687a10.543,10.543,0,0,1-2.711,7.439A9.586,9.586,0,0,1,25.128,35ZM2.441,10.313V24.687c0,4.782,2.917,7.872,7.431,7.872H25.128c4.514,0,7.431-3.09,7.431-7.872V10.313c0-4.782-2.917-7.872-7.431-7.872H9.872C5.358,2.441,2.441,5.531,2.441,10.313ZM23.825,25.906l-.011-.165V20.473a1.221,1.221,0,0,1,2.43-.165l.011.165V25.74a1.221,1.221,0,0,1-2.43.165Zm-7.473,0-.011-.165V9.229a1.222,1.222,0,0,1,2.432-.167l.011.167V25.74a1.222,1.222,0,0,1-2.432.165Zm-7.6,0-.011-.165V14.572a1.221,1.221,0,0,1,2.43-.165l.011.165V25.74a1.221,1.221,0,0,1-2.43.165Z" transform="translate(23 23)" fill="#fac05b"/>
  <g id="Ellipse_31" data-name="Ellipse 31" fill="none" stroke="#fac05b" stroke-width="1" opacity="0.4">
   
    <circle cx="41" cy="41" r="41" stroke="none"/>
    <circle cx="41" cy="41" r="40.5" fill="none"/>
  </g>
</svg>
