<svg xmlns="http://www.w3.org/2000/svg" width="82" height="82" viewBox="0 0 82 82">
 <path id="Path_6299" data-name="Path 6299" d="M37.764,59.524a2.9,2.9,0,0,1-2.9-2.9v-8.7a7.262,7.262,0,0,0-7.253-7.253h-1.7l.85.85a2.9,2.9,0,0,1-4.1,4.1l-5.8-5.8a2.9,2.9,0,0,1,0-4.1l5.8-5.8a2.9,2.9,0,0,1,4.1,4.1l-.85.85h1.7a13.052,13.052,0,0,1,7.254,2.206V25.908l-.85.85a2.9,2.9,0,1,1-4.1-4.1l5.8-5.8a2.905,2.905,0,0,1,4.1,0l5.8,5.8a2.9,2.9,0,0,1-4.1,4.1l-.849-.85v11.16a13.052,13.052,0,0,1,7.254-2.207h1.7l-.85-.85a2.9,2.9,0,1,1,4.1-4.1l5.8,5.8a2.9,2.9,0,0,1,0,4.1l-5.8,5.8a2.9,2.9,0,1,1-4.1-4.1l.85-.85h-1.7a7.262,7.262,0,0,0-7.253,7.253v8.7a2.9,2.9,0,0,1-2.9,2.9ZM24.158,39.214h3.451a8.714,8.714,0,0,1,8.7,8.7v8.7a1.451,1.451,0,0,0,2.9,0v-8.7a8.714,8.714,0,0,1,8.7-8.7h3.451a.725.725,0,0,1,.513,1.238L49.8,42.541a1.451,1.451,0,1,0,2.052,2.052l5.8-5.8a1.452,1.452,0,0,0,0-2.052l-5.8-5.8A1.451,1.451,0,1,0,49.8,32.986l2.088,2.088a.725.725,0,0,1-.513,1.238H47.92a11.6,11.6,0,0,0-7.509,2.765.725.725,0,0,1-1.2-.553V24.157a.725.725,0,0,1,1.238-.513l2.088,2.088a1.451,1.451,0,0,0,2.052-2.052l-5.8-5.8a1.452,1.452,0,0,0-2.052,0l-5.8,5.8a1.451,1.451,0,0,0,2.052,2.052l2.088-2.088a.725.725,0,0,1,1.238.513V38.524a.725.725,0,0,1-1.2.553,11.6,11.6,0,0,0-7.509-2.765H24.158a.725.725,0,0,1-.513-1.238l2.088-2.088a1.451,1.451,0,0,0-2.052-2.052l-5.8,5.8a1.452,1.452,0,0,0,0,2.052l5.8,5.8a1.451,1.451,0,1,0,2.052-2.052l-2.088-2.088a.725.725,0,0,1,.513-1.238Z" transform="translate(2 2 )" fill="#d51945"/>
  <g id="Ellipse_31" data-name="Ellipse 31" fill="none" stroke="#d51945" stroke-width="1" opacity="0.4">
    <circle cx="41" cy="41" r="41" stroke="none"/>
    <circle cx="41" cy="41" r="40.5" fill="none"/>
  </g>
</svg>
