<svg xmlns="http://www.w3.org/2000/svg" width="82" height="82" viewBox="0 0 82 82">
 <path id="_3_User-2" data-name="3 User" d="M7.93,25.775c0-2.18,1.087-3.718,3.323-4.7,2.059-.906,5.125-1.347,9.372-1.347l.572,0c4.067.039,7,.5,8.961,1.4A4.951,4.951,0,0,1,30.3,30.3c-1.885.916-4.679,1.4-8.547,1.475l-1.129.01C11.847,31.789,7.93,29.935,7.93,25.775Zm2.813,0c0,2.648,5.375,3.2,9.882,3.2,6.467,0,9.882-1.119,9.882-3.235,0-2.646-5.373-3.2-9.882-3.2C14.16,22.542,10.743,23.66,10.743,25.775Zm24.281.758a1.405,1.405,0,0,1,1.093-1.66c1.223-.251,2.027-.653,2.224-1.07a1.188,1.188,0,0,0,0-1.012c-.2-.42-1.009-.824-2.251-1.068a16.3,16.3,0,0,0-2.455-.354,1.407,1.407,0,0,1,.194-2.806,18.742,18.742,0,0,1,2.84.41c2,.392,3.512,1.144,4.212,2.609a4,4,0,0,1,0,3.429c-.694,1.461-2.175,2.2-4.2,2.617a1.4,1.4,0,0,1-1.66-1.094ZM4.584,27.626c-2.022-.415-3.5-1.158-4.2-2.616a3.981,3.981,0,0,1,0-3.431c.65-1.367,2.006-2.113,3.783-2.519l.386-.083a19.147,19.147,0,0,1,2.879-.417,1.407,1.407,0,1,1,.194,2.806,16.31,16.31,0,0,0-1.87.235l-.624.128c-1.2.236-2.01.64-2.211,1.061a1.172,1.172,0,0,0,0,1.011c.2.417,1,.818,2.222,1.07a1.406,1.406,0,1,1-.567,2.754ZM14.51,14.759a8.676,8.676,0,0,1,0-12.236A8.64,8.64,0,0,1,29.267,8.64,8.65,8.65,0,0,1,14.51,14.759ZM16.5,4.512a5.865,5.865,0,1,0,4.128-1.7A5.8,5.8,0,0,0,16.5,4.512Zm13.33,9.539a1.406,1.406,0,0,1,1.406-1.406,4.034,4.034,0,1,0,0-8.068,1.406,1.406,0,1,1,0-2.811,6.845,6.845,0,1,1,0,13.691A1.406,1.406,0,0,1,29.827,14.052ZM3.188,8.611a6.846,6.846,0,0,1,6.848-6.845,1.406,1.406,0,0,1,0,2.811,4.034,4.034,0,1,0,0,8.068,1.406,1.406,0,0,1,0,2.811A6.847,6.847,0,0,1,3.188,8.611Z" transform="translate(23 23)" fill="#5bdee0"/>
  <g id="Ellipse_31" data-name="Ellipse 31" fill="none" stroke="#5bdee0" stroke-width="1" opacity="0.4">
    <circle cx="41" cy="41" r="41" stroke="none"/>
    <circle cx="41" cy="41" r="40.5" fill="none"/>
  </g>
</svg>
