<svg xmlns="http://www.w3.org/2000/svg" width="21" height="20" viewBox="0 0 21 20">
  <g id="Group_45" data-name="Group 45" transform="translate(0.348 -0.262)">
    <g id="Ellipse_16" data-name="Ellipse 16" transform="translate(-0.348 0.262)" fill="none" stroke="#9c9ca8" stroke-width="1">
      <ellipse cx="10.5" cy="10" rx="10.5" ry="10" stroke="none"/>
      <ellipse cx="10.5" cy="10" rx="10" ry="9.5" fill="none"/>
    </g>
   
   
    <path id="instagram" d="M4.818,34.208a2.508,2.508,0,1,0,2.508,2.508A2.5,2.5,0,0,0,4.818,34.208Zm0,4.138a1.63,1.63,0,1,1,1.63-1.63A1.633,1.633,0,0,1,4.818,38.346Zm3.2-4.241a.585.585,0,1,1-.585-.585A.584.584,0,0,1,8.013,34.105Zm1.661.594a2.9,2.9,0,0,0-.79-2.049,2.914,2.914,0,0,0-2.049-.79c-.808-.046-3.228-.046-4.035,0a2.909,2.909,0,0,0-2.049.788A2.9,2.9,0,0,0-.041,34.7c-.046.808-.046,3.228,0,4.035a2.9,2.9,0,0,0,.79,2.049,2.917,2.917,0,0,0,2.049.79c.808.046,3.228.046,4.035,0a2.9,2.9,0,0,0,2.049-.79,2.914,2.914,0,0,0,.79-2.049C9.719,37.924,9.719,35.506,9.674,34.7ZM8.63,39.6a1.651,1.651,0,0,1-.93.93,10.779,10.779,0,0,1-2.883.2,10.863,10.863,0,0,1-2.883-.2A1.651,1.651,0,0,1,1,39.6a10.779,10.779,0,0,1-.2-2.883A10.863,10.863,0,0,1,1,33.832a1.651,1.651,0,0,1,.93-.93,10.779,10.779,0,0,1,2.883-.2,10.863,10.863,0,0,1,2.883.2,1.651,1.651,0,0,1,.93.93,10.779,10.779,0,0,1,.2,2.883A10.773,10.773,0,0,1,8.63,39.6Z" transform="translate(5.578 -26.493)" fill="#9c9ca8"/>
    <ellipse cx="17.5" cy="17" rx="17.5" ry="17" stroke="none"/>
      <ellipse cx="17.5" cy="17" rx="17" ry="16.5" fill="none"/>
  </g>
</svg>
