<svg xmlns="http://www.w3.org/2000/svg" width="35" height="34" viewBox="0 0 35 34">
  <g id="Group_45" data-name="Group 45" transform="translate(0.48 -0.155)">
      <g id="linkedin-logo_1_" data-name="linkedin-logo (1)" transform="translate(9.887 8.989)">
      <path id="instagram" d="M8.03,35.772a4.154,4.154,0,1,0,4.154,4.154A4.148,4.148,0,0,0,8.03,35.772Zm0,6.855a2.7,2.7,0,1,1,2.7-2.7A2.706,2.706,0,0,1,8.03,42.627ZM13.323,35.6a.969.969,0,1,1-.969-.969A.967.967,0,0,1,13.323,35.6Zm2.751.983a4.8,4.8,0,0,0-1.309-3.395,4.827,4.827,0,0,0-3.395-1.309c-1.338-.076-5.347-.076-6.685,0a4.82,4.82,0,0,0-3.395,1.305A4.811,4.811,0,0,0-.018,36.582c-.076,1.338-.076,5.347,0,6.685a4.8,4.8,0,0,0,1.309,3.395,4.833,4.833,0,0,0,3.395,1.309c1.338.076,5.347.076,6.685,0a4.8,4.8,0,0,0,3.395-1.309,4.827,4.827,0,0,0,1.309-3.395C16.15,41.929,16.15,37.923,16.074,36.586ZM14.346,44.7a2.734,2.734,0,0,1-1.54,1.54c-1.067.423-3.6.325-4.776.325s-3.713.094-4.776-.325a2.734,2.734,0,0,1-1.54-1.54c-.423-1.067-.325-3.6-.325-4.776s-.094-3.713.325-4.776a2.734,2.734,0,0,1,1.54-1.54c1.067-.423,3.6-.325,4.776-.325s3.713-.094,4.776.325a2.734,2.734,0,0,1,1.54,1.54c.423,1.067.325,3.6.325,4.776S14.769,43.639,14.346,44.7Z" transform="translate(0.075 -31.825)" fill="#9c9ca8"/>
    </g>
 
    <g id="Ellipse_16" data-name="Ellipse 16" transform="translate(-0.48 0.155)" fill="none" stroke="#9c9ca8" stroke-width="1">
      <ellipse cx="17.5" cy="17" rx="17.5" ry="17" stroke="none"/>
      <ellipse cx="17.5" cy="17" rx="17" ry="16.5" fill="none"/>
    </g>
  </g>
</svg>
