<svg id="list" xmlns="http://www.w3.org/2000/svg" width="37" height="33.636" viewBox="0 0 37 33.636">
  <path id="list-2" data-name="list" d="M32.955,5.364H6.045A1.682,1.682,0,0,0,4.364,7.045V30.591a1.682,1.682,0,0,0,1.682,1.682H32.955a1.682,1.682,0,0,0,1.682-1.682V7.045A1.682,1.682,0,0,0,32.955,5.364ZM6.045,2A5.045,5.045,0,0,0,1,7.045V30.591a5.045,5.045,0,0,0,5.045,5.045H32.955A5.045,5.045,0,0,0,38,30.591V7.045A5.045,5.045,0,0,0,32.955,2Zm3.364,8.409h3.364v3.364H9.409Zm8.409,0a1.682,1.682,0,0,0,0,3.364H27.909a1.682,1.682,0,1,0,0-3.364Zm-5.045,6.727H9.409V20.5h3.364Zm3.364,1.682a1.682,1.682,0,0,1,1.682-1.682H27.909a1.682,1.682,0,1,1,0,3.364H17.818A1.682,1.682,0,0,1,16.136,18.818Zm-3.364,5.045H9.409v3.364h3.364Zm3.364,1.682a1.682,1.682,0,0,1,1.682-1.682H27.909a1.682,1.682,0,1,1,0,3.364H17.818A1.682,1.682,0,0,1,16.136,25.545Z" transform="translate(-1 -2)" fill="#fb826a" fill-rule="evenodd"/>
</svg>
