<svg xmlns="http://www.w3.org/2000/svg" xmlns:xlink="http://www.w3.org/1999/xlink" width="132.67" height="130" viewBox="0 0 132.67 130">
  <defs>
    <filter id="Rectangle_9" x="0" y="0" width="130" height="130" filterUnits="userSpaceOnUse">
      <feOffset dx="10" dy="10" input="SourceAlpha"/>
      <feGaussianBlur stdDeviation="15" result="blur"/>
      <feFlood flood-opacity="0.102"/>
      <feComposite operator="in" in2="blur"/>
      <feComposite in="SourceGraphic"/>
    </filter>
  </defs>
  <g id="Group_786" data-name="Group 786" transform="translate(-104 -292.029)">
    <g id="Group_24" data-name="Group 24" transform="translate(139 327.029)">
      <g transform="matrix(1, 0, 0, 1, -35, -35)" filter="url(#Rectangle_9)">
        <rect id="Rectangle_9-2" data-name="Rectangle 9" width="40" height="40" rx="20" transform="translate(35 35)" fill="#46cb9b"/>
      </g>
      <g id="Group_23" data-name="Group 23" transform="translate(9.254 9.254)">
        <g id="Group_22" data-name="Group 22">
          <path id="Path_8" data-name="Path 8" d="M563.909,279.736l-.172,0a10.75,10.75,0,0,0-10.745,10.575c0,.059,0,.113,0,.172a10.745,10.745,0,0,0,10.573,10.742l.175,0a10.746,10.746,0,0,0,10.742-10.573c0-.057,0-.116,0-.172A10.748,10.748,0,0,0,563.909,279.736Zm7.347,10.866a7.532,7.532,0,0,1-7.519,7.4h-.121a7.53,7.53,0,0,1-7.4-7.522v-.121a7.533,7.533,0,0,1,7.522-7.4h.121a7.529,7.529,0,0,1,7.4,7.521Z" transform="translate(-552.989 -279.733)" fill="#231f1f"/>
        </g>
      </g>
    </g>
    <path id="Union_1" data-name="Union 1" d="M32.964,16.321a5.079,5.079,0,0,1-1.416-.639,5.311,5.311,0,0,1-1.816-1.958,5.451,5.451,0,0,1-.648-2.63h3.653a1.594,1.594,0,0,0,.281,1.007,2.036,2.036,0,0,0,.5.487,1.639,1.639,0,0,0,.842.281,1.907,1.907,0,0,0,.887-.174,1.413,1.413,0,0,0,.486-.325,1.768,1.768,0,0,0,.281-.378,1.029,1.029,0,0,0,.119-.357,1.838,1.838,0,0,0,0-.563,1.139,1.139,0,0,0-.119-.367,1.494,1.494,0,0,0-.281-.379,1.869,1.869,0,0,0-.486-.335,4.732,4.732,0,0,0-.509-.2q-.27-.085-.573-.194-.541-.174-1.124-.39a6.287,6.287,0,0,1-1.168-.584A4.561,4.561,0,0,1,30.6,7.438,4.723,4.723,0,0,1,29.7,4.2a4.468,4.468,0,0,1,.486-1.677,4.775,4.775,0,0,1,.973-1.277,4.654,4.654,0,0,1,1.3-.855A4.717,4.717,0,0,1,33.991.015a5.066,5.066,0,0,1,1.664.152,4.845,4.845,0,0,1,1.485.617A4.7,4.7,0,0,1,38.29,1.8a4.4,4.4,0,0,1,.742,1.33,4.621,4.621,0,0,1,.257,1.536H35.655a1.024,1.024,0,0,0-.953-.984,3.607,3.607,0,0,0-.485,0,1.311,1.311,0,0,0-.421.151.847.847,0,0,0-.346.379.967.967,0,0,0-.065.725,1.036,1.036,0,0,0,.433.6,4.913,4.913,0,0,0,.67.313q.367.141.778.271c.245.072.493.151.745.238s.505.188.764.3a5.083,5.083,0,0,1,3.03,4.7A5.025,5.025,0,0,1,39,14.124a5.374,5.374,0,0,1-3.367,2.282,5.809,5.809,0,0,1-1.167.12A5.651,5.651,0,0,1,32.964,16.321Zm10.449-.1V3.932H40.094V.275H50.406V3.932h-3.34V16.224ZM17.7,15.573a7.932,7.932,0,0,1-4.21-4.219,7.718,7.718,0,0,1-.625-3.095,7.725,7.725,0,0,1,.625-3.095A7.932,7.932,0,0,1,17.7.946a7.906,7.906,0,0,1,6.173,0,8.169,8.169,0,0,1,2.526,1.7,7.969,7.969,0,0,1,1.7,2.52,7.726,7.726,0,0,1,.626,3.095,7.719,7.719,0,0,1-.626,3.095,7.958,7.958,0,0,1-1.7,2.52,8.151,8.151,0,0,1-2.526,1.7,7.894,7.894,0,0,1-6.173,0ZM19.129,4.311a4.306,4.306,0,0,0-2.28,2.282,4.313,4.313,0,0,0,0,3.333,4.306,4.306,0,0,0,2.28,2.282,4.293,4.293,0,0,0,3.33,0,4.306,4.306,0,0,0,2.28-2.282,4.313,4.313,0,0,0,0-3.333,4.306,4.306,0,0,0-2.28-2.282,4.293,4.293,0,0,0-3.33,0ZM4.939,15.628a7.651,7.651,0,0,1-2.627-1.742A8.058,8.058,0,0,1,.594,11.3,7.871,7.871,0,0,1,0,8.26,7.926,7.926,0,0,1,.594,5.2,7.825,7.825,0,0,1,2.312,2.633,7.751,7.751,0,0,1,4.95.881,8.035,8.035,0,0,1,7.944.3a7.955,7.955,0,0,1,2.983.584,7.787,7.787,0,0,1,2.627,1.752L10.981,5.208a4.133,4.133,0,0,0-1.427-.941,4.418,4.418,0,0,0-1.622-.314,4.331,4.331,0,0,0-1.611.314,4.157,4.157,0,0,0-1.415.941,4.5,4.5,0,0,0-.929,1.407A4.224,4.224,0,0,0,3.653,8.26a4.139,4.139,0,0,0,.325,1.633,4.532,4.532,0,0,0,.929,1.4,4.142,4.142,0,0,0,1.415.941,4.311,4.311,0,0,0,1.611.314,4.4,4.4,0,0,0,1.622-.314,4.118,4.118,0,0,0,1.427-.941l2.573,2.6a7.68,7.68,0,0,1-2.616,1.742,8.127,8.127,0,0,1-6,0Z" transform="translate(186.263 338.385)" fill="#231f1f"/>
  </g>
</svg>
