<svg xmlns="http://www.w3.org/2000/svg" xmlns:xlink="http://www.w3.org/1999/xlink" width="118" height="118" viewBox="0 0 118 118">
  <defs>
    <filter id="Rectangle_9" x="0" y="0" width="118" height="118" filterUnits="userSpaceOnUse">
      <feOffset dx="10" dy="10" input="SourceAlpha"/>
      <feGaussianBlur stdDeviation="15" result="blur"/>
      <feFlood flood-opacity="0.102"/>
      <feComposite operator="in" in2="blur"/>
      <feComposite in="SourceGraphic"/>
    </filter>
  </defs>
  <g id="Group_2574" data-name="Group 2574" transform="translate(-104 -292.029)">
    <g id="Group_24" data-name="Group 24" transform="translate(139 327.029)">
      <g transform="matrix(1, 0, 0, 1, -35, -35)" filter="url(#Rectangle_9)">
        <rect id="Rectangle_9-2" data-name="Rectangle 9" width="28" height="28" rx="14" transform="translate(35 35)" fill="#46cb9b"/>
      </g>
      <g id="Group_23" data-name="Group 23" transform="translate(6.443 6.443)">
        <g id="Group_22" data-name="Group 22">
          <path id="Path_8" data-name="Path 8" d="M560.591,279.735l-.12,0a7.484,7.484,0,0,0-7.481,7.363c0,.041,0,.079,0,.12a7.481,7.481,0,0,0,7.361,7.479l.122,0a7.481,7.481,0,0,0,7.479-7.361c0-.039,0-.081,0-.12A7.483,7.483,0,0,0,560.591,279.735Zm5.115,7.565a5.244,5.244,0,0,1-5.235,5.152h-.084a5.242,5.242,0,0,1-5.153-5.237v-.084a5.245,5.245,0,0,1,5.237-5.152h.084a5.242,5.242,0,0,1,5.151,5.236Z" transform="translate(-552.989 -279.733)" fill="#231f1f"/>
        </g>
      </g>
    </g>
    <path id="Union_1" data-name="Union 1" d="M22.951,11.363a3.536,3.536,0,0,1-.986-.445A3.7,3.7,0,0,1,20.7,9.555a3.8,3.8,0,0,1-.451-1.831h2.543a1.11,1.11,0,0,0,.2.7,1.417,1.417,0,0,0,.346.339,1.141,1.141,0,0,0,.587.2,1.328,1.328,0,0,0,.618-.121.984.984,0,0,0,.338-.226,1.231,1.231,0,0,0,.2-.263.716.716,0,0,0,.083-.248,1.279,1.279,0,0,0,0-.392.793.793,0,0,0-.083-.255,1.04,1.04,0,0,0-.2-.264,1.3,1.3,0,0,0-.338-.233,3.3,3.3,0,0,0-.354-.136q-.188-.059-.4-.135-.377-.121-.782-.271a4.377,4.377,0,0,1-.813-.407,3.176,3.176,0,0,1-.887-.828,3.288,3.288,0,0,1-.625-2.253,3.111,3.111,0,0,1,.338-1.167A3.324,3.324,0,0,1,21.693.87a3.24,3.24,0,0,1,.9-.6A3.284,3.284,0,0,1,23.665.01a3.527,3.527,0,0,1,1.159.106,3.373,3.373,0,0,1,1.034.43,3.272,3.272,0,0,1,.8.708,3.062,3.062,0,0,1,.517.926,3.217,3.217,0,0,1,.179,1.069h-2.53a.713.713,0,0,0-.664-.685,2.511,2.511,0,0,0-.338,0,.913.913,0,0,0-.293.105.589.589,0,0,0-.241.264.674.674,0,0,0-.045.5.721.721,0,0,0,.3.415,3.42,3.42,0,0,0,.466.218q.256.1.542.189c.171.05.343.105.519.166s.352.131.532.211a3.539,3.539,0,0,1,2.109,3.27,3.5,3.5,0,0,1-.561,1.928,3.742,3.742,0,0,1-2.344,1.589,4.044,4.044,0,0,1-.813.083A3.935,3.935,0,0,1,22.951,11.363Zm7.275-.068V2.737H27.914V.192h7.18V2.737H32.769V11.3Zm-17.9-.453A5.522,5.522,0,0,1,9.389,7.906a5.373,5.373,0,0,1-.435-2.155A5.378,5.378,0,0,1,9.389,3.6,5.522,5.522,0,0,1,12.321.659a5.5,5.5,0,0,1,4.3,0,5.687,5.687,0,0,1,1.759,1.182A5.548,5.548,0,0,1,19.564,3.6,5.379,5.379,0,0,1,20,5.751a5.374,5.374,0,0,1-.436,2.155A5.54,5.54,0,0,1,18.378,9.66a5.675,5.675,0,0,1-1.759,1.182,5.5,5.5,0,0,1-4.3,0Zm1-7.841A3,3,0,0,0,11.73,4.591a3,3,0,0,0,0,2.32A3,3,0,0,0,13.318,8.5a2.989,2.989,0,0,0,2.318,0,3,3,0,0,0,1.588-1.589,3,3,0,0,0,0-2.32A3,3,0,0,0,15.636,3a2.989,2.989,0,0,0-2.318,0ZM3.439,10.881A5.327,5.327,0,0,1,1.61,9.668a5.61,5.61,0,0,1-1.2-1.8A5.48,5.48,0,0,1,0,5.751,5.518,5.518,0,0,1,.414,3.619a5.448,5.448,0,0,1,1.2-1.786A5.4,5.4,0,0,1,3.447.613,5.594,5.594,0,0,1,5.531.207,5.539,5.539,0,0,1,7.608.613a5.421,5.421,0,0,1,1.829,1.22L7.645,3.626a2.877,2.877,0,0,0-.993-.655,3.076,3.076,0,0,0-1.129-.219A3.015,3.015,0,0,0,4.4,2.971a2.894,2.894,0,0,0-.985.655,3.136,3.136,0,0,0-.647.98,2.941,2.941,0,0,0-.226,1.145,2.882,2.882,0,0,0,.226,1.137,3.155,3.155,0,0,0,.647.972,2.884,2.884,0,0,0,.985.655,3,3,0,0,0,1.121.219,3.061,3.061,0,0,0,1.129-.219,2.867,2.867,0,0,0,.993-.655L9.437,9.668a5.347,5.347,0,0,1-1.822,1.213,5.658,5.658,0,0,1-4.176,0Z" transform="translate(171.906 334.935)" fill="#231f1f"/>
  </g>
</svg>
