<svg xmlns="http://www.w3.org/2000/svg" width="86" height="86" viewBox="0 0 86 86">
  <g id="spending" transform="translate(10.748 14.998)">
    <g id="Ellipse_96" data-name="Ellipse 96" transform="translate(-10.748 -14.998)" fill="#fff" stroke="rgba(213,25,69,0.25)" stroke-width="1">
      <circle cx="43" cy="43" r="43" stroke="none"/>
      <circle cx="43" cy="43" r="42.5" fill="none"/>
    </g>
    <g id="Group_2573" data-name="Group 2573" transform="translate(0 0)">
      <g id="Group_2572" data-name="Group 2572">
        <g id="Group_2571" data-name="Group 2571">
          <g id="Group_2570" data-name="Group 2570">
            <g id="Group_2569" data-name="Group 2569">
              <path id="Path_6540" data-name="Path 6540" d="M173.685,204.269a8.766,8.766,0,1,0,8.766,8.766A8.776,8.776,0,0,0,173.685,204.269Zm0,15.662a6.9,6.9,0,1,1,6.9-6.9A6.9,6.9,0,0,1,173.685,219.931Z" transform="translate(-144.369 -182.34)" fill="#d51945"/>
              <path id="Path_6541" data-name="Path 6541" d="M211.951,237.532H211.9v-1.2h.933a.935.935,0,0,0,0-1.869H211.9v-.208a.935.935,0,1,0-1.869,0v.208h-.056a2.469,2.469,0,0,0,0,4.938h.056v1.2h-.933a.935.935,0,0,0,0,1.869h.933v.208a.935.935,0,1,0,1.869,0v-.208h.056a2.469,2.469,0,0,0,0-4.938Zm-1.982,0a.6.6,0,1,1,0-1.2h.056v1.2h-.056Zm1.982,3.069H211.9v-1.2h.056a.6.6,0,1,1,0,1.2Z" transform="translate(-181.644 -207.772)" fill="#d51945"/>
              <path id="Path_6542" data-name="Path 6542" d="M63.772,306.974H62.1a2.183,2.183,0,0,0-2.18,2.18v1.671a2.183,2.183,0,0,0,2.18,2.18h1.671a2.182,2.182,0,0,0,2.18-2.18v-1.671A2.183,2.183,0,0,0,63.772,306.974Zm.311,3.851a.311.311,0,0,1-.311.311H62.1a.311.311,0,0,1-.311-.311v-1.671a.311.311,0,0,1,.311-.311h1.671a.311.311,0,0,1,.311.311Z" transform="translate(-52.454 -272.247)" fill="#d51945"/>
              <path id="Path_6543" data-name="Path 6543" d="M77.557,239.121a.935.935,0,0,0,.935-.935V232.5a.935.935,0,0,0-1.869,0v5.691A.935.935,0,0,0,77.557,239.121Z" transform="translate(-67.074 -206.232)" fill="#d51945"/>
              <path id="Path_6544" data-name="Path 6544" d="M364.388,199.885h1.671a2.183,2.183,0,0,0,2.18-2.18v-1.671a2.183,2.183,0,0,0-2.18-2.18h-1.671a2.182,2.182,0,0,0-2.18,2.18v1.671A2.183,2.183,0,0,0,364.388,199.885Zm-.311-3.851a.311.311,0,0,1,.311-.311h1.671a.311.311,0,0,1,.311.311v1.671a.311.311,0,0,1-.311.311h-1.671a.311.311,0,0,1-.311-.311Z" transform="translate(-317.073 -173.223)" fill="#d51945"/>
              <path id="Path_6545" data-name="Path 6545" d="M58.633,63.114V43.47a2.183,2.183,0,0,0-2.18-2.18H52.615V37.561h.427a2.179,2.179,0,0,0,1.578-3.683l-4.681-4.911a2.179,2.179,0,0,0-3.155,0L42.1,33.878a2.179,2.179,0,0,0,1.577,3.683h.427V41.29H33.57V37.561H34a2.179,2.179,0,0,0,1.577-3.683l-4.681-4.911a2.179,2.179,0,0,0-3.155,0l-4.681,4.911a2.179,2.179,0,0,0,1.578,3.683h.427V41.29H14.526V37.561h.427a2.179,2.179,0,0,0,1.578-3.683l-4.681-4.911a2.179,2.179,0,0,0-3.155,0L4.013,33.878a2.179,2.179,0,0,0,1.578,3.683h.427V41.29H2.18A2.183,2.183,0,0,0,0,43.47v18.7a.935.935,0,1,0,1.869,0V43.47a.311.311,0,0,1,.311-.311H25.062v1.868h-14.7A1.557,1.557,0,0,0,8.815,46.42,4.187,4.187,0,0,1,5.129,50.1a1.557,1.557,0,0,0-1.393,1.547V71.387a1.559,1.559,0,0,0,1.558,1.557H39.713c0,.018,0,.035,0,.053a12.094,12.094,0,0,0,.137,1.815H2.18a.311.311,0,0,1-.311-.311V66.364a.935.935,0,0,0-1.869,0V74.5a2.183,2.183,0,0,0,2.18,2.18H40.289A12.043,12.043,0,1,0,58.633,63.114ZM6.953,35.692H5.591a.31.31,0,0,1-.225-.524l4.681-4.911a.31.31,0,0,1,.449,0l4.681,4.911a.31.31,0,0,1-.225.524H13.591a.935.935,0,0,0-.935.935V41.29H7.887V36.626A.935.935,0,0,0,6.953,35.692Zm38.089,0H43.68a.31.31,0,0,1-.225-.524l4.681-4.911a.31.31,0,0,1,.449,0l4.681,4.911a.31.31,0,0,1-.225.524H51.68a.935.935,0,0,0-.935.935V41.29h-4.77V36.626A.935.935,0,0,0,45.041,35.692Zm-20.406,0a.31.31,0,0,1-.225-.524l4.681-4.911a.31.31,0,0,1,.449,0l4.681,4.911a.31.31,0,0,1-.225.524H32.635a.935.935,0,0,0-.935.935v8.4H26.931v-8.4A.935.935,0,0,0,26,35.692Zm27.121,47.48A10.175,10.175,0,0,1,43.38,67.219a.935.935,0,1,0-1.538-1.063,11.958,11.958,0,0,0-1.977,4.918H5.605V51.926a6.074,6.074,0,0,0,5.031-5.03H40.478a.935.935,0,1,0,0-1.869H33.57V43.159H56.452a.311.311,0,0,1,.311.311V62.044a11.949,11.949,0,0,0-1.867-.675V46.584a1.559,1.559,0,0,0-1.558-1.557H44.672a.935.935,0,0,0,0,1.869h8.355V61.019a12.1,12.1,0,0,0-3.943.231V57.725a.935.935,0,1,0-1.869,0V61.84a12.01,12.01,0,0,0-2.132,1.129.935.935,0,0,0,1.037,1.555,10.175,10.175,0,1,1,5.636,18.647Z" transform="translate(0 -28.291)" fill="#d51945"/>
              <path id="Path_6546" data-name="Path 6546" d="M353.594,316.513a8.79,8.79,0,1,0,8.79,8.79A8.8,8.8,0,0,0,353.594,316.513Zm0,15.711a6.921,6.921,0,1,1,6.921-6.921A6.929,6.929,0,0,1,353.594,332.224Z" transform="translate(-301.838 -280.598)" fill="#d51945"/>
              <path id="Path_6547" data-name="Path 6547" d="M391.98,349.879h-.059V348.67h.939a.935.935,0,1,0,0-1.869h-.939v-.212a.935.935,0,0,0-1.869,0v.212h-.059a2.474,2.474,0,0,0,0,4.947h.059v1.209h-.939a.935.935,0,1,0,0,1.869h.939v.212a.935.935,0,0,0,1.869,0v-.212h.059a2.474,2.474,0,0,0,0-4.947Zm-1.988,0a.6.6,0,1,1,0-1.209h.059v1.209Zm1.988,3.078h-.059v-1.209h.059a.6.6,0,0,1,0,1.209Z" transform="translate(-339.23 -306.108)" fill="#d51945"/>
            </g>
          </g>
        </g>
      </g>
    </g>
  </g>
</svg>
