<svg xmlns="http://www.w3.org/2000/svg" width="86" height="86" viewBox="0 0 86 86">
  <g id="interface" transform="translate(16 16)">
    <g id="Ellipse_98" data-name="Ellipse 98" transform="translate(-16 -16)" fill="#fff" stroke="rgba(70,203,155,0.25)" stroke-width="1">
      <circle cx="43" cy="43" r="43" stroke="none"/>
      <circle cx="43" cy="43" r="42.5" fill="none"/>
    </g>
    <path id="Path_6517" data-name="Path 6517" d="M218.379,36H195.945a1.121,1.121,0,0,0,0,2.241h22.434a1.121,1.121,0,0,0,0-2.241Zm0,0" transform="translate(-172.99 -31.965)" fill="#46cb9b"/>
    <path id="Path_6518" data-name="Path 6518" d="M87.48,36a1.121,1.121,0,1,0,.792.328A1.127,1.127,0,0,0,87.48,36Zm0,0" transform="translate(-76.681 -31.965)" fill="#46cb9b"/>
    <path id="Path_6519" data-name="Path 6519" d="M50.73,36a1.121,1.121,0,1,0,.792.328A1.13,1.13,0,0,0,50.73,36Zm0,0" transform="translate(-44.05 -31.965)" fill="#46cb9b"/>
    <path id="Path_6520" data-name="Path 6520" d="M124.23,36a1.121,1.121,0,1,0,.792.328A1.131,1.131,0,0,0,124.23,36Zm0,0" transform="translate(-109.312 -31.965)" fill="#46cb9b"/>
    <path id="Path_6521" data-name="Path 6521" d="M262.793,438a1.122,1.122,0,1,0,.792.328A1.127,1.127,0,0,0,262.793,438Zm0,0" transform="translate(-232.346 -388.912)" fill="#46cb9b"/>
    <path id="Path_6522" data-name="Path 6522" d="M58.1,119.121A1.121,1.121,0,0,0,56.983,118H47.121A1.121,1.121,0,0,0,46,119.121v9.862a1.121,1.121,0,0,0,1.121,1.121h9.862a1.121,1.121,0,0,0,1.121-1.121Zm-2.241,8.742H48.241v-7.621h7.621Zm0,0" transform="translate(-40.845 -104.775)" fill="#46cb9b"/>
    <path id="Path_6523" data-name="Path 6523" d="M192.983,118h-9.862A1.121,1.121,0,0,0,182,119.121v9.862a1.121,1.121,0,0,0,1.121,1.121h9.862a1.121,1.121,0,0,0,1.121-1.121v-9.862A1.121,1.121,0,0,0,192.983,118Zm-1.121,9.862h-7.621v-7.621h7.621Zm0,0" transform="translate(-161.603 -104.775)" fill="#46cb9b"/>
    <path id="Path_6524" data-name="Path 6524" d="M319.121,130.1h9.862a1.121,1.121,0,0,0,1.121-1.121v-9.862A1.121,1.121,0,0,0,328.983,118h-9.862A1.121,1.121,0,0,0,318,119.121v9.862A1.121,1.121,0,0,0,319.121,130.1Zm1.121-9.862h7.621v7.621h-7.621Zm0,0" transform="translate(-282.361 -104.775)" fill="#46cb9b"/>
    <path id="Path_6525" data-name="Path 6525" d="M58.1,264.983v-9.862A1.121,1.121,0,0,0,56.983,254H47.121A1.121,1.121,0,0,0,46,255.121v9.862a1.121,1.121,0,0,0,1.121,1.121h9.862A1.121,1.121,0,0,0,58.1,264.983Zm-2.241-1.121H48.241v-7.621h7.621Zm0,0" transform="translate(-40.845 -225.534)" fill="#46cb9b"/>
    <path id="Path_6526" data-name="Path 6526" d="M192.983,254h-9.862A1.121,1.121,0,0,0,182,255.121v9.862a1.121,1.121,0,0,0,1.121,1.121h9.862a1.121,1.121,0,0,0,1.121-1.121v-9.862A1.121,1.121,0,0,0,192.983,254Zm-1.121,9.862h-7.621v-7.621h7.621Zm0,0" transform="translate(-161.603 -225.534)" fill="#46cb9b"/>
    <path id="Path_6527" data-name="Path 6527" d="M56.82,47.32l-1.838-1.062a9.956,9.956,0,0,0,0-2.409l1.838-1.062a1.12,1.12,0,0,0,.41-1.531L54.5,36.523a1.12,1.12,0,0,0-1.531-.41l-.068.039V4.708A4.712,4.712,0,0,0,48.191,0H4.707A4.712,4.712,0,0,0,0,4.708v45.5A1.121,1.121,0,0,0,1.121,51.33H26.113a1.121,1.121,0,1,0,0-2.241H2.241V46.4h8.518a1.121,1.121,0,1,0,0-2.241H2.241V10.311H50.657V36.839a9.748,9.748,0,0,0-1.615-.871V33.847a1.121,1.121,0,0,0-1.121-1.121h-.178V29.588a1.121,1.121,0,0,0-1.121-1.121H36.76a1.121,1.121,0,0,0-1.121,1.121v7.173a1.139,1.139,0,0,0,.012.155l-2.506,4.341a1.12,1.12,0,0,0,.41,1.531l1.838,1.062a9.956,9.956,0,0,0,0,2.409l-1.838,1.061a1.121,1.121,0,0,0-.41,1.531l2.734,4.735a1.121,1.121,0,0,0,1.531.41l1.838-1.061a9.784,9.784,0,0,0,2.086,1.206v2.121a1.121,1.121,0,0,0,1.121,1.121h5.467a1.121,1.121,0,0,0,1.121-1.121V54.14a9.748,9.748,0,0,0,2.086-1.206L52.966,54a1.12,1.12,0,0,0,1.531-.41l2.734-4.734a1.12,1.12,0,0,0-.41-1.531ZM2.254,8.07H2.241V4.708A2.468,2.468,0,0,1,4.707,2.242H48.191a2.468,2.468,0,0,1,2.466,2.466V8.07ZM45.5,30.709v2.017H42.454a1.121,1.121,0,0,0-1.121,1.121v2.121a9.747,9.747,0,0,0-2.086,1.206l-1.367-.789V30.709Zm7.153,12.785a7.7,7.7,0,0,1,0,3.121,1.12,1.12,0,0,0,.537,1.2l1.538.888-1.613,2.794-1.54-.889a1.12,1.12,0,0,0-1.307.135,7.568,7.568,0,0,1-2.7,1.56,1.12,1.12,0,0,0-.771,1.065V55.14H43.575V53.365A1.121,1.121,0,0,0,42.8,52.3a7.564,7.564,0,0,1-2.7-1.56,1.12,1.12,0,0,0-1.308-.135l-1.54.889L35.646,48.7l1.538-.888a1.121,1.121,0,0,0,.537-1.2,7.7,7.7,0,0,1,0-3.121,1.121,1.121,0,0,0-.537-1.2l-1.538-.888,1.613-2.794,1.54.889a1.121,1.121,0,0,0,1.308-.135,7.566,7.566,0,0,1,2.7-1.56,1.121,1.121,0,0,0,.771-1.065V34.967H46.8v1.776a1.12,1.12,0,0,0,.771,1.065,7.568,7.568,0,0,1,2.7,1.56,1.12,1.12,0,0,0,1.307.135l1.54-.889,1.613,2.794-1.538.888A1.12,1.12,0,0,0,52.655,43.494Zm0,0" transform="translate(0 -0.001)" fill="#46cb9b"/>
    <path id="Path_6528" data-name="Path 6528" d="M363.208,356.961a5.048,5.048,0,1,0,5.048,5.048A5.053,5.053,0,0,0,363.208,356.961Zm0,7.854a2.806,2.806,0,1,1,2.806-2.806A2.809,2.809,0,0,1,363.208,364.815Zm0,0" transform="translate(-318.02 -316.955)" fill="#46cb9b"/>
    <path id="Path_6529" data-name="Path 6529" d="M122.329,394.329a1.12,1.12,0,1,0,.792-.328A1.13,1.13,0,0,0,122.329,394.329Zm0,0" transform="translate(-108.327 -349.844)" fill="#46cb9b"/>
  </g>
</svg>
