<svg xmlns="http://www.w3.org/2000/svg" width="86" height="86" viewBox="0 0 86 86">
  <g id="official-documents" transform="translate(17 12.069)">
    <g id="Ellipse_99" data-name="Ellipse 99" transform="translate(-17 -12.069)" fill="#fff" stroke="rgba(251,130,106,0.25)" stroke-width="1">
      <circle cx="43" cy="43" r="43" stroke="none"/>
      <circle cx="43" cy="43" r="42.5" fill="none"/>
    </g>
    <circle id="Ellipse_94" data-name="Ellipse 94" cx="1.057" cy="1.057" r="1.057" transform="translate(23.059 35.617)" fill="#fb826a"/>
    <path id="Path_6530" data-name="Path 6530" d="M40.013,127.1v4.405a1.1,1.1,0,0,0,1.1,1.1H72.941a1.1,1.1,0,0,0,1.1-1.1V127.1a1.1,1.1,0,0,0-1.1-1.1H41.114A1.1,1.1,0,0,0,40.013,127.1Zm11.673,1.1H71.839v2.2H51.686Zm-9.471,0h7.268v2.2H42.216Z" transform="translate(-35.608 -112.124)" fill="#fb826a"/>
    <path id="Path_6531" data-name="Path 6531" d="M41.114,208.2H72.941a1.1,1.1,0,0,0,0-2.2H41.114a1.1,1.1,0,0,0,0,2.2Z" transform="translate(-35.608 -183.314)" fill="#fb826a"/>
    <path id="Path_6532" data-name="Path 6532" d="M41.114,248.2H72.941a1.1,1.1,0,1,0,0-2.2H41.114a1.1,1.1,0,1,0,0,2.2Z" transform="translate(-35.608 -218.909)" fill="#fb826a"/>
    <path id="Path_6533" data-name="Path 6533" d="M41.114,288.2H59.4a1.1,1.1,0,1,0,0-2.2H41.114a1.1,1.1,0,1,0,0,2.2Z" transform="translate(-35.608 -254.504)" fill="#fb826a"/>
    <path id="Path_6534" data-name="Path 6534" d="M41.114,328.2H54.99a1.1,1.1,0,0,0,0-2.2H41.114a1.1,1.1,0,0,0,0,2.2Z" transform="translate(-35.608 -290.099)" fill="#fb826a"/>
    <path id="Path_6535" data-name="Path 6535" d="M127.114,372.608h5.617a5.506,5.506,0,1,0,0-2.2h-5.617a1.1,1.1,0,1,0,0,2.2Zm11.013-2.2h-3.114a3.3,3.3,0,1,1,0,2.2h3.114a1.1,1.1,0,1,0,0-2.2Z" transform="translate(-112.137 -325.694)" fill="#fb826a"/>
    <path id="Path_6536" data-name="Path 6536" d="M312.317,62.2a1.1,1.1,0,1,0,0-2.2h-2.2a1.1,1.1,0,0,0,0,2.2Z" transform="translate(-274.984 -53.392)" fill="#fb826a"/>
    <path id="Path_6537" data-name="Path 6537" d="M252.317,62.2a1.1,1.1,0,0,0,0-2.2h-2.2a1.1,1.1,0,1,0,0,2.2Z" transform="translate(-221.592 -53.392)" fill="#fb826a"/>
    <path id="Path_6538" data-name="Path 6538" d="M192.317,62.2a1.1,1.1,0,1,0,0-2.2h-2.2a1.1,1.1,0,1,0,0,2.2Z" transform="translate(-168.199 -53.392)" fill="#fb826a"/>
    <ellipse id="Ellipse_95" data-name="Ellipse 95" cx="1.585" cy="1.057" rx="1.585" ry="1.057" transform="translate(19.889 54.638)" fill="#fb826a"/>
    <path id="Path_6539" data-name="Path 6539" d="M1.114,56.384H16.642a1.1,1.1,0,1,0,0-2.2H2.216V11.012H9.924a1.1,1.1,0,0,0,1.1-1.1V2.2H40.649V33.33c-.5.591-.966,1.11-1.37,1.524l-2.335-2.335a5.5,5.5,0,0,0-7.788,0L27.6,34.076a1.1,1.1,0,0,0,0,1.557L40.649,48.682v5.5h-14.1a1.1,1.1,0,0,0,0,2.2h15.2a1.1,1.1,0,0,0,1.1-1.1v-4.4l.323.323a1.1,1.1,0,0,0,1.558,0l1.557-1.557a5.5,5.5,0,0,0,0-7.787l-2.334-2.334a42.106,42.106,0,0,1,9.1-6.468,5.519,5.519,0,1,0-7.239-7.28,29.459,29.459,0,0,1-2.962,4.743V1.1a1.1,1.1,0,0,0-1.1-1.1H9.924a1.113,1.113,0,0,0-.779.323L.336,9.133a1.106,1.106,0,0,0-.323.779V55.283a1.1,1.1,0,0,0,1.1,1.1ZM44.731,43.42a3.3,3.3,0,0,1,0,4.672l-.778.778L29.937,34.855l.779-.779a3.3,3.3,0,0,1,4.672,0Zm-2.118-9.006a40.934,40.934,0,0,0,5.214-7.743,3.317,3.317,0,1,1,4.346,4.37,43.393,43.393,0,0,0-9.776,6.93l-1.56-1.56c.522-.534,1.132-1.219,1.777-2ZM8.823,3.76V8.81H3.773Z" transform="translate(-0.013 0)" fill="#fb826a"/>
  </g>
</svg>
