<svg xmlns="http://www.w3.org/2000/svg" width="34" height="34" viewBox="0 0 34 34">
  <g id="Group_48" data-name="Group 48" transform="translate(-0.388 -0.155)">
    <path id="twitter_1_" data-name="twitter (1)" d="M19.027,49.83a8.133,8.133,0,0,1-2.248.616A3.879,3.879,0,0,0,18.5,48.29a7.8,7.8,0,0,1-2.473.944A3.9,3.9,0,0,0,9.274,51.9a4.016,4.016,0,0,0,.09.89,11.041,11.041,0,0,1-8.04-4.08,3.9,3.9,0,0,0,1.2,5.213,3.852,3.852,0,0,1-1.762-.48v.043A3.919,3.919,0,0,0,3.886,57.32a3.893,3.893,0,0,1-1.023.128,3.449,3.449,0,0,1-.738-.067A3.938,3.938,0,0,0,5.77,60.1,7.838,7.838,0,0,1,.933,61.762,7.305,7.305,0,0,1,0,61.709a10.981,10.981,0,0,0,5.984,1.75,11.026,11.026,0,0,0,11.1-11.1c0-.172-.006-.339-.014-.5A7.782,7.782,0,0,0,19.027,49.83Z" transform="translate(7.191 -39.012)" fill="#9c9ca8"/>
    <g id="Ellipse_16" data-name="Ellipse 16" transform="translate(0.388 0.155)" fill="none" stroke="#9c9ca8" stroke-width="1">
      <circle cx="17" cy="17" r="17" stroke="none"/>
      <circle cx="17" cy="17" r="16.5" fill="none"/>
    </g>
  </g>
</svg>
