<svg xmlns="http://www.w3.org/2000/svg" xmlns:xlink="http://www.w3.org/1999/xlink" width="109" height="109" viewBox="0 0 109 109">
  <defs>
    <filter id="Path_6240" x="0" y="0" width="109" height="109" filterUnits="userSpaceOnUse">
      <feOffset dy="3" input="SourceAlpha"/>
      <feGaussianBlur stdDeviation="3" result="blur"/>
      <feFlood flood-opacity="0.161"/>
      <feComposite operator="in" in2="blur"/>
      <feComposite in="SourceGraphic"/>
    </filter>
  </defs>
  <g id="Group_2498" data-name="Group 2498" transform="translate(-1353 -509)">
    <circle id="Ellipse_20" data-name="Ellipse 20" cx="39" cy="39" r="39" transform="translate(1368 522)" fill="#fff"/>
    <g id="play-button_1_" data-name="play-button (1)" transform="translate(1362 515)">
      <g id="Group_2497" data-name="Group 2497">
        <g transform="matrix(1, 0, 0, 1, -9, -6)" filter="url(#Path_6240)">
          <path id="Path_6240-2" data-name="Path 6240" d="M45.5,0A45.5,45.5,0,1,0,91,45.5,45.551,45.551,0,0,0,45.5,0ZM63.588,47.094,37.047,64.157a1.9,1.9,0,0,1-2.922-1.594V28.437a1.9,1.9,0,0,1,2.922-1.594L63.588,43.906a1.9,1.9,0,0,1,0,3.188Z" transform="translate(9 6)" fill="#46cb9b"/>
        </g>
      </g>
    </g>
  </g>
</svg>
